<svg width="10" height="13" viewBox="0 0 10 13" fill="none" xmlns="http://www.w3.org/2000/svg">
<path d="M4.55975 12.5707C4.55975 12.5707 0 6.83216 0 4.39974C-8.92274e-09 3.82196 0.117942 3.24983 0.347091 2.71603C0.57624 2.18223 0.912108 1.69721 1.33552 1.28865C1.75893 0.8801 2.2616 0.556018 2.81481 0.33491C3.36803 0.113803 3.96096 0 4.55975 0C5.15855 0 5.75148 0.113803 6.30469 0.33491C6.85791 0.556018 7.36057 0.8801 7.78398 1.28865C8.2074 1.69721 8.54327 2.18223 8.77242 2.71603C9.00156 3.24983 9.1195 3.82196 9.1195 4.39974C9.1195 6.83216 4.55975 12.5707 4.55975 12.5707ZM4.55975 5.65681C4.90527 5.65681 5.23664 5.52436 5.48096 5.28862C5.72528 5.05287 5.86254 4.73313 5.86254 4.39974C5.86254 4.06634 5.72528 3.7466 5.48096 3.51086C5.23664 3.27511 4.90527 3.14267 4.55975 3.14267C4.21423 3.14267 3.88286 3.27511 3.63854 3.51086C3.39422 3.7466 3.25697 4.06634 3.25697 4.39974C3.25697 4.73313 3.39422 5.05287 3.63854 5.28862C3.88286 5.52436 4.21423 5.65681 4.55975 5.65681Z" fill="#D9D9D9"/>
</svg>
