<svg width="51" height="51" viewBox="0 0 51 51" fill="none" xmlns="http://www.w3.org/2000/svg">
<path d="M2.46118 25.6153C2.46118 8.99993 8.69195 2.76917 25.3073 2.76917C41.9227 2.76917 48.1535 8.99993 48.1535 25.6153C48.1535 42.2307 41.9227 48.4615 25.3073 48.4615C8.69195 48.4615 2.46118 42.2307 2.46118 25.6153Z" fill="black" fill-opacity="0.5"/>
<path d="M34.5288 15.3967H16.0858C14.896 15.3967 13.7549 15.8694 12.9136 16.7107C12.0723 17.552 11.5996 18.6931 11.5996 19.8829V31.3475C11.5996 32.5373 12.0723 33.6784 12.9136 34.5197C13.7549 35.361 14.896 35.8337 16.0858 35.8337H34.5288C35.7186 35.8337 36.8597 35.361 37.701 34.5197C38.5423 33.6784 39.015 32.5373 39.015 31.3475V19.8829C39.015 18.6931 38.5423 17.552 37.701 16.7107C36.8597 15.8694 35.7186 15.3967 34.5288 15.3967ZM25.3073 30.5998C24.3214 30.5998 23.3577 30.3075 22.538 29.7597C21.7183 29.212 21.0794 28.4335 20.7021 27.5227C20.3248 26.6119 20.2261 25.6097 20.4185 24.6427C20.6108 23.6758 21.0855 22.7876 21.7826 22.0905C22.4798 21.3934 23.3679 20.9187 24.3349 20.7264C25.3018 20.534 26.304 20.6327 27.2148 21.01C28.1257 21.3873 28.9041 22.0262 29.4519 22.8459C29.9996 23.6656 30.2919 24.6293 30.2919 25.6152C30.2947 26.2705 30.1676 26.92 29.9181 27.526C29.6686 28.132 29.3015 28.6826 28.8381 29.146C28.3747 29.6094 27.8241 29.9764 27.2181 30.226C26.6121 30.4755 25.9627 30.6026 25.3073 30.5998ZM33.615 23.2475C33.0728 23.2475 32.5427 23.0867 32.0919 22.7855C31.641 22.4842 31.2896 22.0561 31.0821 21.5551C30.8746 21.0541 30.8203 20.5029 30.9261 19.9711C31.0319 19.4393 31.293 18.9508 31.6764 18.5674C32.0598 18.184 32.5483 17.9229 33.0801 17.8171C33.612 17.7113 34.1632 17.7656 34.6641 17.9731C35.1651 18.1806 35.5933 18.532 35.8945 18.9828C36.1957 19.4337 36.3565 19.9637 36.3565 20.506C36.3565 21.2331 36.0677 21.9304 35.5536 22.4445C35.0394 22.9587 34.3421 23.2475 33.615 23.2475Z" fill="white" fill-opacity="0.9"/>
</svg>
