<svg width="80" height="16" viewBox="0 0 80 16" fill="none" xmlns="http://www.w3.org/2000/svg">
<path d="M8 11.5606L4.29187 13.5099L5.00032 9.38105L2 6.45706L6.14594 5.8546L8 2.0979L9.85406 5.8546L14 6.45706L10.9997 9.38105L11.7081 13.5099L8 11.5606Z" fill="#D3CAA6"/>
<path d="M24 11.5606L20.2919 13.5099L21.0003 9.38105L18 6.45706L22.1459 5.8546L24 2.0979L25.8541 5.8546L30 6.45706L26.9997 9.38105L27.7081 13.5099L24 11.5606Z" fill="#D3CAA6"/>
<path d="M40 11.5606L36.2919 13.5099L37.0003 9.38105L34 6.45706L38.1459 5.8546L40 2.0979L41.8541 5.8546L46 6.45706L42.9997 9.38105L43.7081 13.5099L40 11.5606Z" fill="#D3CAA6"/>
<path d="M56 11.5606L52.2919 13.5099L53.0003 9.38105L50 6.45706L54.1459 5.8546L56 2.0979L57.8541 5.8546L62 6.45706L58.9997 9.38105L59.7081 13.5099L56 11.5606Z" fill="#D3CAA6"/>
<path d="M72 11.5606L68.2919 13.5099L69.0003 9.38105L66 6.45706L70.1459 5.8546L72 2.0979L73.8541 5.8546L78 6.45706L74.9997 9.38105L75.7081 13.5099L72 11.5606Z" fill="#DADADA"/>
</svg>
