<svg width="65" height="13" viewBox="0 0 65 13" fill="none" xmlns="http://www.w3.org/2000/svg">
<path d="M6.5 9.39299L3.48715 10.9768L4.06276 7.62209L1.625 5.24635L4.99357 4.75685L6.5 1.70453L8.00643 4.75685L11.375 5.24635L8.93724 7.62209L9.51285 10.9768L6.5 9.39299Z" fill="#D3CAA6"/>
<path d="M19.4998 9.39299L16.487 10.9768L17.0626 7.62209L14.6248 5.24635L17.9934 4.75685L19.4998 1.70453L21.0062 4.75685L24.3748 5.24635L21.9371 7.62209L22.5127 10.9768L19.4998 9.39299Z" fill="#D3CAA6"/>
<path d="M32.4996 9.39299L29.4868 10.9768L30.0624 7.62209L27.6246 5.24635L30.9932 4.75685L32.4996 1.70453L34.0061 4.75685L37.3746 5.24635L34.9369 7.62209L35.5125 10.9768L32.4996 9.39299Z" fill="#D3CAA6"/>
<path d="M45.5004 9.39299L42.4875 10.9768L43.0631 7.62209L40.6254 5.24635L43.9939 4.75685L45.5004 1.70453L47.0068 4.75685L50.3754 5.24635L47.9376 7.62209L48.5132 10.9768L45.5004 9.39299Z" fill="#D3CAA6"/>
<path d="M58.5002 9.39299L55.4873 10.9768L56.0629 7.62209L53.6252 5.24635L56.9938 4.75685L58.5002 1.70453L60.0066 4.75685L63.3752 5.24635L60.9374 7.62209L61.513 10.9768L58.5002 9.39299Z" fill="#D3CAA6"/>
</svg>
