<svg width="21" height="19" viewBox="0 0 21 19" fill="none" xmlns="http://www.w3.org/2000/svg">
<path d="M2.9014 10.0015L3.2639 9.65709L3.23934 9.63124L3.21136 9.60914L2.9014 10.0015ZM18.0986 10.0015L17.7886 9.60914L17.7607 9.63124L17.7361 9.65709L18.0986 10.0015ZM10.5 18L10.1375 18.3444L10.5 18.726L10.8625 18.3444L10.5 18ZM3.21136 9.60914C2.17632 8.7914 1.5 7.48282 1.5 6H0.5C0.5 7.79013 1.31744 9.38727 2.59143 10.3938L3.21136 9.60914ZM1.5 6C1.5 3.49024 3.42665 1.5 5.75 1.5V0.5C2.82665 0.5 0.5 2.98691 0.5 6H1.5ZM5.75 1.5C8.07335 1.5 10 3.49024 10 6H11C11 2.98691 8.67335 0.5 5.75 0.5V1.5ZM11 6C11 3.49024 12.9266 1.5 15.25 1.5V0.5C12.3266 0.5 10 2.98691 10 6H11ZM15.25 1.5C17.5734 1.5 19.5 3.49024 19.5 6H20.5C20.5 2.98691 18.1734 0.5 15.25 0.5V1.5ZM19.5 6C19.5 7.48282 18.8237 8.79139 17.7886 9.60914L18.4086 10.3938C19.6826 9.38726 20.5 7.79013 20.5 6H19.5ZM10.8625 18.3444L18.4611 10.3458L17.7361 9.65709L10.1375 17.6556L10.8625 18.3444ZM2.5389 10.3458L10.1375 18.3444L10.8625 17.6556L3.2639 9.65709L2.5389 10.3458Z" fill="white"/>
</svg>
