<svg width="60" height="12" viewBox="0 0 60 12" fill="none" xmlns="http://www.w3.org/2000/svg">
<path d="M6 8.67041L3.2189 10.1324L3.75024 7.03572L1.5 4.84274L4.60945 4.39089L6 1.57336L7.39055 4.39089L10.5 4.84274L8.24976 7.03572L8.7811 10.1324L6 8.67041Z" fill="#D3CAA6"/>
<path d="M18 8.67041L15.2189 10.1324L15.7502 7.03572L13.5 4.84274L16.6095 4.39089L18 1.57336L19.3905 4.39089L22.5 4.84274L20.2498 7.03572L20.7811 10.1324L18 8.67041Z" fill="#D3CAA6"/>
<path d="M30 8.67041L27.2189 10.1324L27.7502 7.03572L25.5 4.84274L28.6095 4.39089L30 1.57336L31.3905 4.39089L34.5 4.84274L32.2498 7.03572L32.7811 10.1324L30 8.67041Z" fill="#D3CAA6"/>
<path d="M42 8.67041L39.2189 10.1324L39.7502 7.03572L37.5 4.84274L40.6095 4.39089L42 1.57336L43.3905 4.39089L46.5 4.84274L44.2498 7.03572L44.7811 10.1324L42 8.67041Z" fill="#D3CAA6"/>
<path d="M54 8.67041L51.2189 10.1324L51.7502 7.03572L49.5 4.84274L52.6095 4.39089L54 1.57336L55.3905 4.39089L58.5 4.84274L56.2498 7.03572L56.7811 10.1324L54 8.67041Z" fill="#DADADA"/>
</svg>
