<svg width="55" height="17" viewBox="0 0 55 17" fill="none" xmlns="http://www.w3.org/2000/svg">
<path d="M52.785 8.50032L52.5136 8.15713L52.4892 8.17643L52.4678 8.19899L52.785 8.50032ZM46.325 5.09998L45.8875 5.09999L46.7625 5.09998H46.325ZM39.8677 8.50252L40.1849 8.20119L40.1633 8.17849L40.1388 8.1591L39.8677 8.50252ZM46.3253 15.3L46.0081 15.6013L46.3253 15.9352L46.6425 15.6013L46.3253 15.3ZM53.9625 5.09998C53.9625 6.35604 53.3898 7.46435 52.5136 8.15713L53.0563 8.84351C54.1415 7.98554 54.8375 6.62483 54.8375 5.09998H53.9625ZM50.3625 1.28748C52.3299 1.28748 53.9625 2.97297 53.9625 5.09998H54.8375C54.8375 2.53256 52.8548 0.412476 50.3625 0.412476V1.28748ZM46.7625 5.09998C46.7625 2.97297 48.3952 1.28748 50.3625 1.28748V0.412476C47.8702 0.412476 45.8875 2.53256 45.8875 5.09998H46.7625ZM42.2875 1.28757C44.2548 1.28757 45.8875 2.97302 45.8875 5.09999L46.7625 5.09997C46.7624 2.5326 44.7798 0.412573 42.2875 0.412573V1.28757ZM38.6875 5.10007C38.6875 2.97307 40.3201 1.28757 42.2875 1.28757V0.412573C39.7952 0.412573 37.8125 2.53266 37.8125 5.10007H38.6875ZM40.1388 8.1591C39.2612 7.46645 38.6875 6.35728 38.6875 5.10007H37.8125C37.8125 6.62631 38.5098 7.9881 39.5966 8.84593L40.1388 8.1591ZM39.5505 8.80384L46.0081 15.6013L46.6425 14.9986L40.1849 8.20119L39.5505 8.80384ZM46.6425 15.6013L53.1021 8.80165L52.4678 8.19899L46.0081 14.9986L46.6425 15.6013Z" fill="#BFBFBF"/>
<mask id="path-2-inside-1_49_3934" fill="white">
<path fill-rule="evenodd" clip-rule="evenodd" d="M6.68333 0C3.46167 0 0.85 2.61168 0.85 5.83334V9.61563L0 13.6H13.6L12.75 9.61562V5.83333C12.75 2.61167 10.1383 0 6.91666 0H6.68333Z"/>
</mask>
<path d="M0.85 9.61563L1.70574 9.79818L1.725 9.70792V9.61563H0.85ZM0 13.6L-0.855744 13.4174L-1.08136 14.475H0V13.6ZM13.6 13.6V14.475H14.6814L14.4557 13.4174L13.6 13.6ZM12.75 9.61562H11.875V9.70792L11.8943 9.79818L12.75 9.61562ZM1.725 5.83334C1.725 3.09492 3.94492 0.875 6.68333 0.875V-0.875C2.97842 -0.875 -0.025 2.12843 -0.025 5.83334H1.725ZM1.725 9.61563V5.83334H-0.025V9.61563H1.725ZM0.855744 13.7826L1.70574 9.79818L-0.00574371 9.43307L-0.855744 13.4174L0.855744 13.7826ZM13.6 12.725H0V14.475H13.6V12.725ZM11.8943 9.79818L12.7443 13.7826L14.4557 13.4174L13.6057 9.43307L11.8943 9.79818ZM11.875 5.83333V9.61562H13.625V5.83333H11.875ZM6.91666 0.875C9.65508 0.875 11.875 3.09492 11.875 5.83333H13.625C13.625 2.12842 10.6216 -0.875 6.91666 -0.875V0.875ZM6.68333 0.875H6.91666V-0.875H6.68333V0.875Z" fill="#BFBFBF" mask="url(#path-2-inside-1_49_3934)"/>
<path d="M8.87778 14.45C8.87778 15.4932 8.03209 16.3388 6.98889 16.3388C5.94568 16.3388 5.1 15.4932 5.1 14.45" stroke="#BFBFBF" stroke-width="0.875"/>
<path d="M26.35 0V17" stroke="#EBEBEB" stroke-width="0.875"/>
</svg>
