<svg width="24" height="24" viewBox="0 0 24 24" fill="none" xmlns="http://www.w3.org/2000/svg">
<mask id="path-1-inside-1_49_4028" fill="white">
<path fill-rule="evenodd" clip-rule="evenodd" d="M18.5 13.5H22.5L12 3L1.5 13.5H5.5V21H18.5V13.5Z"/>
</mask>
<path d="M22.5 13.5V14.5H24.9142L23.2071 12.7929L22.5 13.5ZM18.5 13.5V12.5H17.5V13.5H18.5ZM12 3L12.7071 2.29289L12 1.58579L11.2929 2.29289L12 3ZM1.5 13.5L0.792893 12.7929L-0.914214 14.5H1.5V13.5ZM5.5 13.5H6.5V12.5H5.5V13.5ZM5.5 21H4.5V22H5.5V21ZM18.5 21V22H19.5V21H18.5ZM22.5 12.5H18.5V14.5H22.5V12.5ZM11.2929 3.70711L21.7929 14.2071L23.2071 12.7929L12.7071 2.29289L11.2929 3.70711ZM2.20711 14.2071L12.7071 3.70711L11.2929 2.29289L0.792893 12.7929L2.20711 14.2071ZM5.5 12.5H1.5V14.5H5.5V12.5ZM6.5 21V13.5H4.5V21H6.5ZM18.5 20H5.5V22H18.5V20ZM17.5 13.5V21H19.5V13.5H17.5Z" fill="white" mask="url(#path-1-inside-1_49_4028)"/>
</svg>
