<svg width="51" height="51" viewBox="0 0 51 51" fill="none" xmlns="http://www.w3.org/2000/svg">
<path d="M2.76929 25.6156C2.76929 9.00018 9.00006 2.76941 25.6154 2.76941C42.2308 2.76941 48.4616 9.00018 48.4616 25.6156C48.4616 42.2309 42.2308 48.4617 25.6154 48.4617C9.00006 48.4617 2.76929 42.2309 2.76929 25.6156Z" fill="black" fill-opacity="0.5"/>
<path d="M24.1199 24.9923V22.9153C24.1199 22.3204 24.3562 21.7499 24.7769 21.3293C25.1975 20.9086 25.7681 20.6723 26.363 20.6723H29.603C30.1908 20.6724 30.7551 20.4418 31.1746 20.03C31.5941 19.6183 31.8352 19.0584 31.8461 18.4707V15.3969C31.8461 14.802 31.6097 14.2314 31.1891 13.8108C30.7684 13.3901 30.1979 13.1538 29.603 13.1538H27.6922C25.4889 13.1538 23.3758 14.0291 21.8178 15.5871C20.2598 17.1451 19.3845 19.2582 19.3845 21.4615V29.7692C19.3845 31.9725 20.2598 34.0856 21.8178 35.6436C23.3758 37.2016 25.4889 38.0769 27.6922 38.0769H29.5407C29.8404 38.0852 30.1388 38.0334 30.4182 37.9244C30.6976 37.8154 30.9523 37.6515 31.1672 37.4423C31.3821 37.2332 31.553 36.9831 31.6696 36.7068C31.7862 36.4306 31.8462 36.1337 31.8461 35.8338V32.76C31.8461 32.1651 31.6097 31.5945 31.1891 31.1739C30.7684 30.7532 30.1979 30.5169 29.603 30.5169H26.363C25.7681 30.5169 25.1975 30.2806 24.7769 29.8599C24.3562 29.4392 24.1199 28.8687 24.1199 28.2738V24.9923Z" fill="white" fill-opacity="0.9"/>
</svg>
