<svg width="14" height="17" viewBox="0 0 14 17" fill="none" xmlns="http://www.w3.org/2000/svg">
<mask id="path-1-inside-1_49_4094" fill="white">
<path fill-rule="evenodd" clip-rule="evenodd" d="M6.68333 0C3.46167 0 0.85 2.61168 0.85 5.83334V9.61563L0 13.6H13.6L12.75 9.61562V5.83333C12.75 2.61167 10.1383 0 6.91666 0H6.68333Z"/>
</mask>
<path d="M0.85 9.61563L1.82799 9.82426L1.85 9.72111V9.61563H0.85ZM0 13.6L-0.977993 13.3914L-1.23584 14.6H0V13.6ZM13.6 13.6V14.6H14.8358L14.578 13.3914L13.6 13.6ZM12.75 9.61562H11.75V9.7211L11.772 9.82426L12.75 9.61562ZM1.85 5.83334C1.85 3.16396 4.01396 1 6.68333 1V-1C2.90939 -1 -0.15 2.05939 -0.15 5.83334H1.85ZM1.85 9.61563V5.83334H-0.15V9.61563H1.85ZM0.977993 13.8086L1.82799 9.82426L-0.127993 9.40699L-0.977993 13.3914L0.977993 13.8086ZM13.6 12.6H0V14.6H13.6V12.6ZM11.772 9.82426L12.622 13.8086L14.578 13.3914L13.728 9.40699L11.772 9.82426ZM11.75 5.83333V9.61562H13.75V5.83333H11.75ZM6.91666 1C9.58604 1 11.75 3.16396 11.75 5.83333H13.75C13.75 2.05939 10.6906 -1 6.91666 -1V1ZM6.68333 1H6.91666V-1H6.68333V1Z" fill="black" mask="url(#path-1-inside-1_49_4094)"/>
<path d="M8.87778 14.45C8.87778 15.4932 8.0321 16.3389 6.9889 16.3389C5.94569 16.3389 5.10001 15.4932 5.10001 14.45" stroke="black"/>
</svg>
