<svg width="360" height="86" viewBox="0 0 360 86" fill="none" xmlns="http://www.w3.org/2000/svg">
<rect width="360" height="86" fill="#F3F1E9"/>
<mask id="path-2-inside-1_49_4548" fill="white">
<path fill-rule="evenodd" clip-rule="evenodd" d="M42.5 27.5H46.5L36 17L25.5 27.5H29.5V35H42.5V27.5Z"/>
</mask>
<path d="M46.5 27.5V28.5H48.9142L47.2071 26.7929L46.5 27.5ZM42.5 27.5V26.5H41.5V27.5H42.5ZM36 17L36.7071 16.2929L36 15.5858L35.2929 16.2929L36 17ZM25.5 27.5L24.7929 26.7929L23.0858 28.5H25.5V27.5ZM29.5 27.5H30.5V26.5H29.5V27.5ZM29.5 35H28.5V36H29.5V35ZM42.5 35V36H43.5V35H42.5ZM46.5 26.5H42.5V28.5H46.5V26.5ZM35.2929 17.7071L45.7929 28.2071L47.2071 26.7929L36.7071 16.2929L35.2929 17.7071ZM26.2071 28.2071L36.7071 17.7071L35.2929 16.2929L24.7929 26.7929L26.2071 28.2071ZM29.5 26.5H25.5V28.5H29.5V26.5ZM30.5 35V27.5H28.5V35H30.5ZM42.5 34H29.5V36H42.5V34ZM41.5 27.5V35H43.5V27.5H41.5Z" fill="black" mask="url(#path-2-inside-1_49_4548)"/>
<rect x="100.5" y="18.5" width="15" height="16" stroke="black"/>
<path d="M104 24H112" stroke="black"/>
<path d="M104 27H112" stroke="black"/>
<path d="M104 30H112" stroke="black"/>
<mask id="path-8-inside-2_49_4548" fill="white">
<path fill-rule="evenodd" clip-rule="evenodd" d="M188 19H172V25H173H187H188V19ZM188 26H187H173H172V36H188V26Z"/>
</mask>
<path fill-rule="evenodd" clip-rule="evenodd" d="M188 19H172V25H173H187H188V19ZM188 26H187H173H172V36H188V26Z" fill="black"/>
<path d="M172 19V18H171V19H172ZM188 19H189V18H188V19ZM172 25H171V26H172V25ZM188 25V26H189V25H188ZM188 26H189V25H188V26ZM172 26V25H171V26H172ZM172 36H171V37H172V36ZM188 36V37H189V36H188ZM172 20H188V18H172V20ZM173 25V19H171V25H173ZM173 24H172V26H173V24ZM187 24H173V26H187V24ZM188 24H187V26H188V24ZM187 19V25H189V19H187ZM187 27H188V25H187V27ZM173 27H187V25H173V27ZM172 27H173V25H172V27ZM173 36V26H171V36H173ZM188 35H172V37H188V35ZM187 26V36H189V26H187Z" fill="black" mask="url(#path-8-inside-2_49_4548)"/>
<path d="M176 17V22" stroke="black"/>
<path d="M184 17V22" stroke="black"/>
<path d="M244.401 27.0015L244.764 26.6571L244.739 26.6312L244.711 26.6091L244.401 27.0015ZM259.599 27.0015L259.289 26.6091L259.261 26.6312L259.236 26.6571L259.599 27.0015ZM252 35L251.638 35.3444L252 35.726L252.362 35.3444L252 35ZM244.711 26.6091C243.676 25.7914 243 24.4828 243 23H242C242 24.7901 242.817 26.3873 244.091 27.3938L244.711 26.6091ZM243 23C243 20.4902 244.927 18.5 247.25 18.5V17.5C244.327 17.5 242 19.9869 242 23H243ZM247.25 18.5C249.573 18.5 251.5 20.4902 251.5 23H252.5C252.5 19.9869 250.173 17.5 247.25 17.5V18.5ZM252.5 23C252.5 20.4902 254.427 18.5 256.75 18.5V17.5C253.827 17.5 251.5 19.9869 251.5 23H252.5ZM256.75 18.5C259.073 18.5 261 20.4902 261 23H262C262 19.9869 259.673 17.5 256.75 17.5V18.5ZM261 23C261 24.4828 260.324 25.7914 259.289 26.6091L259.909 27.3938C261.183 26.3873 262 24.7901 262 23H261ZM252.362 35.3444L259.961 27.3458L259.236 26.6571L251.638 34.6556L252.362 35.3444ZM244.039 27.3458L251.638 35.3444L252.362 34.6556L244.764 26.6571L244.039 27.3458Z" fill="black"/>
<path d="M317.25 35V26.5H330.75V35" stroke="black"/>
<path d="M320.75 21C320.75 19.3431 322.093 18 323.75 18C325.407 18 326.75 19.3431 326.75 21" stroke="black"/>
</svg>
