<svg width="154" height="123" viewBox="0 0 154 123" fill="none" xmlns="http://www.w3.org/2000/svg">
<g filter="url(#filter0_d_49_3857)">
<path d="M37.8937 13.1572C33.5359 13.1572 29.6624 13.3584 26.273 13.7607C22.9643 14.1631 20.0188 15.008 17.4364 16.2956C14.9347 17.5831 12.6752 19.4742 10.6577 21.9689C8.6402 24.383 6.78412 27.6422 5.08944 31.7462C4.92804 32.0681 4.72629 32.1888 4.4842 32.1084C4.3228 31.9474 4.1614 31.6255 4 31.1427C4.72629 28.9699 5.57363 26.8777 6.54202 24.8659C7.51042 22.7736 8.59986 20.8825 9.81034 19.1926C11.1015 17.4222 12.5138 15.9335 14.0471 14.7264C15.5803 13.5193 17.275 12.7548 19.1311 12.4329C21.1486 12.0306 23.4082 11.8696 25.9098 11.9501C28.4115 11.9501 30.9132 11.9501 33.4149 11.9501C35.7551 11.9501 38.0954 11.9903 40.4357 12.0708C42.776 12.0708 45.1162 12.0708 47.4565 12.0708H52.6616C59.1176 11.9903 64.2823 10.904 68.1559 8.81169C69.3664 8.16791 70.5769 7.20225 71.7873 5.9147C72.9978 4.62715 73.6031 3.21889 73.6031 1.68992C73.6031 1.28755 73.5627 1.0059 73.482 0.844958C73.4013 0.764488 73.361 0.64378 73.361 0.482836C73.361 0.160944 73.482 0 73.7241 0C73.8048 0 73.9259 0.0804701 74.0873 0.241414C75.0557 1.28755 75.7819 2.33369 76.2661 3.37983C76.5082 3.70172 76.6293 4.18455 76.6293 4.82832C76.6293 5.31116 76.4679 5.87446 76.1451 6.51824C74.7732 8.77146 72.7154 10.3809 69.9716 11.3466C67.3085 12.3122 64.0402 12.8755 60.1666 13.0365C58.7948 13.1169 57.3422 13.1572 55.8089 13.1572C54.2756 13.0767 52.9037 13.0767 51.6932 13.1572C50.5634 13.1572 49.7161 13.5595 49.1512 14.3643C44.6321 21.2044 40.4357 27.8836 36.5621 34.4018C32.7693 40.92 29.2992 47.0359 26.1519 52.7494C25.4256 54.1175 24.8204 55.405 24.3362 56.6121C23.9327 57.7387 23.6906 58.7848 23.6099 59.7505C23.6099 60.3943 23.6906 61.0381 23.852 61.6818C24.0134 62.2451 24.3766 62.7682 24.9414 63.251C25.5063 63.6534 26.3133 64.0155 27.3624 64.3374C28.4922 64.5788 29.9448 64.6995 31.7202 64.6995C32.1237 64.6995 32.6079 64.6995 33.1728 64.6995C33.7377 64.6995 34.2219 64.6593 34.6254 64.5788C34.8674 64.9007 34.7464 65.2226 34.2622 65.5445C32.8903 65.7054 31.357 65.7859 29.6623 65.7859C27.9677 65.8664 26.394 65.9066 24.9414 65.9066C23.731 65.9066 22.5608 65.8664 21.431 65.7859C20.3819 65.7859 19.4135 65.625 18.5259 65.3031C17.7189 65.0617 17.0329 64.6593 16.468 64.096C15.9838 63.5327 15.7417 62.728 15.7417 61.6818C15.7417 61.0381 15.9031 60.3138 16.2259 59.5091C16.5487 58.7044 16.9926 57.8594 17.5575 56.9742C19.7363 53.4334 21.9152 49.8122 24.0941 46.1105C26.3537 42.4088 28.5326 38.7473 30.6307 35.1261C32.8096 31.4243 34.9078 27.8433 36.9253 24.383C38.9428 20.8423 40.7988 17.4624 42.4935 14.2436C42.897 13.5193 42.6953 13.1572 41.8883 13.1572H37.8937Z" fill="url(#paint0_linear_49_3857)" shape-rendering="crispEdges"/>
<path d="M83.1905 44.662C81.8186 46.5129 80.1239 48.2028 78.1065 49.7317C76.1697 51.1802 73.9505 51.9045 71.4488 51.9045C70.0769 51.9045 68.705 51.5826 67.3331 50.9388C66.0419 50.2146 64.9928 49.1684 64.1859 47.8004C63.621 49.088 62.8947 50.5767 62.007 52.2666C61.1193 53.876 60.0702 55.5257 58.8597 57.2156C57.6492 58.8251 56.2773 60.3138 54.744 61.6818C53.2915 63.0499 51.7178 64.1765 50.0231 65.0617C48.5706 65.7054 47.3601 66.0273 46.3917 66.0273C43.4865 66.0273 42.0339 64.7398 42.0339 62.1647C42.0339 60.7162 42.276 59.2274 42.7602 57.6985C43.3251 56.1695 44.011 54.6808 44.818 53.2323C45.625 51.7838 46.4724 50.4157 47.3601 49.1282C48.3285 47.8406 49.2162 46.7945 50.0231 45.9898C51.7178 44.1389 53.6546 42.5697 55.8335 41.2822C58.0124 39.9946 60.3526 39.2301 62.8543 38.9887C63.0157 38.3449 63.2578 37.6207 63.5806 36.816C63.9034 35.9308 64.4683 35.4077 65.2753 35.2468C65.6788 35.1663 66.0823 35.0858 66.4858 35.0053C66.8893 34.9249 67.2524 34.8042 67.5752 34.6432C67.8173 34.4823 68.0594 34.4823 68.3015 34.6432C68.5436 34.7237 68.584 34.9249 68.4226 35.2468C67.8577 36.132 67.4138 37.2586 67.091 38.6266C66.8489 39.9946 66.7279 41.4834 66.7279 43.0928C66.7279 45.346 67.1314 47.1969 67.9384 48.6454C68.8261 50.0939 70.319 50.8181 72.4172 50.8181C74.5153 50.8181 76.4118 50.1341 78.1065 48.7661C79.8012 47.398 81.2134 45.9093 82.3432 44.2999C82.5046 43.8975 82.7467 43.7768 83.0695 43.9377C83.473 44.0987 83.5133 44.3401 83.1905 44.662ZM63.2175 45.507C63.0561 44.7827 62.935 43.9377 62.8543 42.9721C62.7736 42.0064 62.7333 41.081 62.7333 40.1958C62.7333 39.7934 62.5719 39.5923 62.2491 39.5923C61.3614 39.5923 60.4333 39.9141 59.465 40.5579C58.4966 41.1212 57.5282 41.9259 56.5598 42.9721C55.5914 43.9377 54.623 45.0644 53.6546 46.3519C52.6862 47.6395 51.7985 48.9672 50.9915 50.3353C49.9424 52.1057 48.9741 54.037 48.0864 56.1293C47.2794 58.1411 46.9162 60.0724 46.9969 61.9233C46.9969 62.4866 47.0776 63.0096 47.239 63.4925C47.4811 63.9753 47.9653 64.2167 48.6916 64.2167C50.0635 64.2167 51.5564 63.4522 53.1704 61.9233C54.7844 60.3943 56.3177 58.6239 57.7703 56.6121C59.2229 54.5198 60.4333 52.4275 61.4017 50.3353C62.4508 48.243 63.0561 46.6336 63.2175 45.507Z" fill="url(#paint1_linear_49_3857)" shape-rendering="crispEdges"/>
<path d="M108.49 46.2312C104.213 51.6228 99.6128 55.6464 94.6901 58.302C89.8482 60.8771 84.7642 62.7682 79.438 63.9753C77.5819 64.3777 75.9679 64.6995 74.5961 64.941C73.2242 65.1824 71.8523 65.4238 70.4804 65.6652C68.1401 69.6083 68.9209 68.5112 66.8227 72.3739C64.7245 76.317 62.6263 80.2199 60.5282 84.0826C57.4616 89.7961 58.6775 88.1877 56.1758 93.2575C53.6741 98.3272 50.9707 103.357 48.0655 108.346C47.5006 109.312 46.734 110.036 45.7656 110.519C44.7972 111.082 43.6674 111.565 42.3762 111.967C41.085 112.37 39.5921 112.772 37.8974 113.174C36.2027 113.577 34.3467 114.14 32.3292 114.864C31.845 115.106 31.5625 115.025 31.4818 114.623C31.4011 114.301 31.6029 114.059 32.0871 113.899C34.1853 113.094 35.9606 112.289 37.4132 111.484C38.8658 110.76 40.1974 109.875 41.4078 108.829C42.5376 107.783 43.6271 106.535 44.6762 105.087C45.7253 103.638 46.9357 101.828 48.3076 99.655C49.6795 97.4018 51.3742 94.5852 53.3917 91.2054C55.3285 87.9061 53.5073 91.2446 55.9283 87.221C58.3493 83.1974 60.8913 78.8921 63.5544 74.3052C66.2175 69.7988 65.9209 70.2521 68.6647 65.6652C68.1805 65.5043 67.9384 65.0617 67.9384 64.3374C67.9384 63.8546 68.1805 63.5729 68.6647 63.4925C69.2296 63.412 69.6734 63.3315 69.9962 63.251L75.5644 54.1979C78.1468 50.0134 80.7292 45.6679 83.3116 41.1615C85.8939 36.655 88.557 32.6314 91.3008 29.0907C91.6236 28.7688 92.0674 28.5273 92.6323 28.3664C92.7937 28.2859 93.1165 28.2055 93.6007 28.125C94.0849 28.0445 94.5691 27.964 95.0533 27.8836C95.5375 27.8031 95.9813 27.7629 96.3848 27.7629C96.7883 27.6824 97.0304 27.6422 97.1111 27.6422C97.3532 27.6422 97.4743 27.7226 97.4743 27.8836C97.4743 28.125 97.3129 28.4066 96.9901 28.7285C95.2954 30.2575 93.8025 31.7462 92.5113 33.1947C91.2201 34.5628 90.0096 35.9308 88.8798 37.2988C87.75 38.5864 86.6606 39.9141 85.6115 41.2822C84.6431 42.6502 83.6344 44.1389 82.5853 45.7484C83.3923 44.8632 84.28 43.9377 85.2483 42.9721C86.2167 42.0064 87.1851 41.1212 88.1535 40.3165C89.1219 39.5118 90.0903 38.868 91.0587 38.3852C92.0271 37.8219 92.9148 37.5402 93.7218 37.5402C94.5288 37.5402 95.1743 37.7816 95.6585 38.2645C96.2234 38.7473 96.5059 39.552 96.5059 40.6786C96.5059 41.4834 96.1427 42.7307 95.4164 44.4206C94.7708 46.1105 93.6007 48.0016 91.906 50.0939C90.292 52.1861 88.1132 54.3589 85.3694 56.6121C82.6256 58.8653 79.1959 60.9576 75.0802 62.8889C77.2591 62.6475 79.6801 62.2854 82.3432 61.8025C85.087 61.2392 87.9114 60.354 90.8166 59.147C93.7218 57.8594 96.6269 56.1695 99.5321 54.0772C102.437 51.9045 105.181 49.1282 107.763 45.7484C107.844 45.5874 107.965 45.5472 108.127 45.6277C108.369 45.6277 108.49 45.8288 108.49 46.2312ZM91.5429 43.0928C91.5429 42.7709 91.4622 42.3685 91.3008 41.8857C91.2201 41.4029 90.8166 41.1615 90.0903 41.1615C89.6868 41.1615 89.0816 41.4029 88.2746 41.8857C87.5483 42.2881 86.7009 42.8916 85.7325 43.6963C84.7642 44.4206 83.7554 45.346 82.7063 46.4726C81.6572 47.5992 80.6485 48.8465 79.6801 50.2146C78.3082 52.1459 76.9767 54.2382 75.6855 56.4914C74.3943 58.6641 73.1031 60.9174 71.8119 63.251C74.475 62.5268 76.9767 61.3197 79.3169 59.6298C81.7379 57.9399 83.8361 56.089 85.6115 54.0772C87.4676 52.0654 88.9202 50.0536 89.9693 48.0418C91.0183 46.03 91.5429 44.3803 91.5429 43.0928Z" fill="url(#paint2_linear_49_3857)" shape-rendering="crispEdges"/>
<path d="M91.7755 65.7859C91.9369 67.2344 92.5825 68.2001 93.7123 68.6829C94.8421 69.1657 96.335 69.4072 98.1911 69.4072C100.612 69.4072 103.275 68.7634 106.18 67.4758C109.086 66.1883 111.789 64.4581 114.291 62.2854C116.873 60.0322 119.012 57.4168 120.706 54.4394C122.482 51.4619 123.369 48.2832 123.369 44.9034C123.369 43.7768 123.127 42.6502 122.643 41.5236C122.239 40.3165 121.352 39.1497 119.98 38.0231C118.931 37.1379 118.003 36.4538 117.196 35.971C116.389 35.4077 115.662 34.9249 115.017 34.5225C114.452 34.0397 114.008 33.5569 113.685 33.074C113.363 32.5107 113.201 31.8669 113.201 31.1427C113.847 28.3262 115.178 25.4292 117.196 22.4517C119.213 19.3938 121.513 16.2554 124.096 13.0365C124.499 12.5536 124.862 12.3122 125.185 12.3122C125.346 12.3122 125.992 12.4732 127.122 12.7951C128.332 13.117 130.229 13.2779 132.811 13.2779C138.46 13.2779 142.616 12.272 145.279 10.2602C147.942 8.24839 149.274 5.95494 149.274 3.37983C149.274 2.57511 149.072 1.77039 148.668 0.965669C148.911 0.804725 149.233 0.844961 149.637 1.08637C149.879 1.81062 150 2.61535 150 3.50054C150 5.35139 149.516 7.16201 148.547 8.9324C147.66 10.7028 146.328 12.3122 144.553 13.7607C142.858 15.1288 140.8 16.2554 138.379 17.1406C136.039 17.9453 133.416 18.3476 130.511 18.3476C129.381 18.3476 128.09 18.3074 126.638 18.2269C125.185 18.066 123.813 17.8246 122.522 17.5027C120.424 19.5145 118.931 21.4458 118.043 23.2967C117.236 25.067 116.833 26.2741 116.833 26.9179C116.833 28.0445 117.317 29.0907 118.285 30.0563C119.254 31.022 120.989 32.2291 123.49 33.6776C124.862 34.4823 126.153 35.5284 127.364 36.816C128.574 38.0231 129.18 39.6727 129.18 41.765C129.18 43.7768 128.615 45.9495 127.485 48.2832C126.436 50.5365 124.983 52.7897 123.127 55.0429C121.352 57.2961 119.334 59.4689 117.075 61.5611C114.815 63.5729 112.475 65.3835 110.054 66.993C107.714 68.6024 105.373 69.8497 103.033 70.7349C100.773 71.7006 98.756 72.1834 96.9806 72.1834C95.1245 72.1834 93.7123 71.8615 92.7439 71.2178C91.6948 70.574 91.1703 69.3267 91.1703 67.4758C91.1703 66.5906 91.372 66.0273 91.7755 65.7859Z" fill="url(#paint3_linear_49_3857)" shape-rendering="crispEdges"/>
</g>
<defs>
<filter id="filter0_d_49_3857" x="0" y="0" width="154" height="123" filterUnits="userSpaceOnUse" color-interpolation-filters="sRGB">
<feFlood flood-opacity="0" result="BackgroundImageFix"/>
<feColorMatrix in="SourceAlpha" type="matrix" values="0 0 0 0 0 0 0 0 0 0 0 0 0 0 0 0 0 0 127 0" result="hardAlpha"/>
<feOffset dy="4"/>
<feGaussianBlur stdDeviation="2"/>
<feComposite in2="hardAlpha" operator="out"/>
<feColorMatrix type="matrix" values="0 0 0 0 0 0 0 0 0 0 0 0 0 0 0 0 0 0 0.25 0"/>
<feBlend mode="normal" in2="BackgroundImageFix" result="effect1_dropShadow_49_3857"/>
<feBlend mode="normal" in="SourceGraphic" in2="effect1_dropShadow_49_3857" result="shape"/>
</filter>
<linearGradient id="paint0_linear_49_3857" x1="77" y1="52.5" x2="77" y2="97.5" gradientUnits="userSpaceOnUse">
<stop stop-color="white"/>
<stop offset="1" stop-color="white" stop-opacity="0"/>
</linearGradient>
<linearGradient id="paint1_linear_49_3857" x1="77" y1="52.5" x2="77" y2="97.5" gradientUnits="userSpaceOnUse">
<stop stop-color="white"/>
<stop offset="1" stop-color="white" stop-opacity="0"/>
</linearGradient>
<linearGradient id="paint2_linear_49_3857" x1="77" y1="52.5" x2="77" y2="97.5" gradientUnits="userSpaceOnUse">
<stop stop-color="white"/>
<stop offset="1" stop-color="white" stop-opacity="0"/>
</linearGradient>
<linearGradient id="paint3_linear_49_3857" x1="77" y1="52.5" x2="77" y2="97.5" gradientUnits="userSpaceOnUse">
<stop stop-color="white"/>
<stop offset="1" stop-color="white" stop-opacity="0"/>
</linearGradient>
</defs>
</svg>
